<svg width="24" height="24" viewBox="0 0 24 24" fill="none" xmlns="http://www.w3.org/2000/svg">
<g clip-path="url(#clip0_88_5694)">
<path fill-rule="evenodd" clip-rule="evenodd" d="M10.9401 7.93999C11.2213 7.65909 11.6026 7.50131 12.0001 7.50131C12.3976 7.50131 12.7788 7.65909 13.0601 7.93999L18.7181 13.596C18.9994 13.8774 19.1573 14.259 19.1572 14.6568C19.1571 15.0547 18.999 15.4362 18.7176 15.7175C18.4362 15.9988 18.0546 16.1567 17.6567 16.1566C17.2589 16.1565 16.8774 15.9984 16.5961 15.717L12.0001 11.121L7.4041 15.717C7.12132 15.9904 6.74249 16.1417 6.34919 16.1385C5.9559 16.1353 5.5796 15.9777 5.30136 15.6997C5.02311 15.4217 4.86518 15.0456 4.86158 14.6523C4.85798 14.259 5.00899 13.88 5.2821 13.597L10.9391 7.93899L10.9401 7.93999Z" fill="#747474"/>
</g>
<defs>
<clipPath id="clip0_88_5694">
<rect width="24" height="24" fill="white"/>
</clipPath>
</defs>
</svg>
